<svg width="246" height="244" viewBox="0 0 246 244" fill="none" xmlns="http://www.w3.org/2000/svg">
<path d="M246 122.746C246 54.955 190.931 -5.65019e-06 123 -5.65019e-06C55.0689 -5.65019e-06 0 54.955 0 122.746C0 184.011 44.9793 234.792 103.781 244V158.227H72.5508V122.746H103.781V95.7032C103.781 64.9401 122.144 47.9475 150.24 47.9475C163.697 47.9475 177.773 50.3449 177.773 50.3449V80.5518H162.263C146.984 80.5518 142.219 90.0135 142.219 99.7205V122.746H176.332L170.879 158.227H142.219V244C201.021 234.792 246 184.011 246 122.746Z" fill="#1877F2"/>
</svg>
