<svg width="140" height="140" viewBox="0 0 140 140" fill="none" xmlns="http://www.w3.org/2000/svg">
<path fill-rule="evenodd" clip-rule="evenodd" d="M137.2 71.5955C137.2 66.6319 136.755 61.8592 135.927 57.2773H70V84.3546H107.673C106.05 93.1046 101.118 100.518 93.7045 105.482V123.046H116.327C129.564 110.859 137.2 92.9137 137.2 71.5955Z" fill="#4285F4"/>
<path fill-rule="evenodd" clip-rule="evenodd" d="M69.9994 139.993C88.8994 139.993 104.745 133.725 116.327 123.034L93.704 105.47C87.4358 109.67 79.4176 112.152 69.9994 112.152C51.7676 112.152 36.3358 99.8384 30.8312 83.293H7.44489V101.429C18.9631 124.307 42.6358 139.993 69.9994 139.993Z" fill="#34A853"/>
<path fill-rule="evenodd" clip-rule="evenodd" d="M30.8318 83.3067C29.4318 79.1067 28.6364 74.6203 28.6364 70.0067C28.6364 65.393 29.4318 60.9067 30.8318 56.7067V38.5703H7.44545C2.70455 48.0203 0 58.7112 0 70.0067C0 81.3021 2.70455 91.993 7.44545 101.443L30.8318 83.3067Z" fill="#FBBC05"/>
<path fill-rule="evenodd" clip-rule="evenodd" d="M69.9994 27.8409C80.2767 27.8409 89.504 31.3727 96.7585 38.3091L116.836 18.2318C104.713 6.93636 88.8676 0 69.9994 0C42.6358 0 18.9631 15.6864 7.44489 38.5636L30.8313 56.7C36.3358 40.1545 51.7676 27.8409 69.9994 27.8409Z" fill="#EA4335"/>
</svg>
